<?xml version="1.0" ?><svg xmlns="http://www.w3.org/2000/svg" width="295.21588mm" height="235.01724mm" viewBox="0 0 295.21588 235.01724">
    <path d="m 578.79673,-546.6305 262.63361,-0.0722 1.80578,6.35592 -2.96942,217.8349 -7.82478,2.49182 -241.04521,-1.15562 -0.28098,-88.83851 c 0,0 -29.81458,1.30005 -32.50301,-0.43336 -2.68869,-1.73342 -4.41404,-5.9948 -4.81541,-11.52012 -0.40138,-5.52532 -0.8427,-34.16311 0.72231,-36.51046 1.56501,-2.34736 9.34958,-2.27513 9.34958,-2.27513 l 29.895,1.84177 -0.28098,-19.75393 c 0,0 -8.30633,5.34477 -12.76033,4.55028 -4.45426,-0.79449 -7.94543,-6.8254 -7.78483,-16.32318 0.1606,-9.49777 5.85867,-56.19215 5.85867,-56.19215 z" fill="#fff" paint-order="fill markers stroke" transform="translate(0.36641364,83.529802) translate(-551.26463,468.62628)"/>
    <path d="m 824.59058,-317.56449 c -1.77016,-0.089 -51.01981,-0.70177 -112.66355,-0.82766 -61.64371,-0.12594 -114.31786,-0.51908 -117.05361,-0.87368 -4.58587,-0.59457 -5.0265,-0.84193 -5.64436,-3.16921 -0.8695,-3.27508 -0.64899,-55.98909 0.30305,-72.45931 l 0.0358,-12.66097 -12.53186,0.36791 c -19.73329,0.57932 -23.05165,-0.78272 -24.86874,-10.59284 -1.40236,-7.57076 -1.72499,-30.22526 -0.55069,-38.46065 1.20709,-8.46544 8.7255,-5.60009 26.7311,-5.2862 l 13.52177,0.16051 c -0.62265,-1.90016 -0.1088,-9.68251 -0.0787,-13.04246 -4.60289,2.59566 -8.6532,3.79156 -12.78432,2.1716 -4.01387,-1.62209 -7.34403,-5.91326 -8.37178,-13.11155 -1.04583,-7.32514 -0.85563,-13.86464 0.69029,-23.73552 0.68846,-4.39661 2.25901,-21.72958 3.05231,-29.5018 0.13962,-10.56045 2.95981,-10.46486 10.85635,-10.93762 8.03899,-0.47495 20.85003,-1.00283 36.40383,-1.92146 18.67933,-1.10323 149.3589,-0.68746 187.23555,-0.30754 28.36106,0.28448 28.62888,0.30366 31.76975,2.27568 6.55584,4.11601 6.1099,4.83798 4.3321,82.73381 -0.85592,37.51915 -1.32268,76.18245 -1.0455,86.66916 0.3943,14.91862 0.19961,49.08286 -0.32672,57.34898 -0.0484,0.76586 4.3e-4,3.0897 -2.07866,4.29064 -3.19906,2.01074 -11.27053,1.15472 -16.93341,0.87018 z m -127.38755,-6.23887 c 26.6287,0.17292 49.54021,0.0691 50.91469,-0.23137 l 2.49896,-0.54595 -0.44175,-9.44533 c -0.24297,-5.19491 -0.59851,-10.67598 -0.79005,-12.18004 l -0.34834,-2.73469 -13.213,-0.0682 c -25.01476,-0.77523 -50.06082,-0.2668 -70.03844,-0.40327 -28.68795,-0.218 -53.64409,0.50435 -54.56417,0.28038 -1.65195,-0.40208 -2.83868,-3.56235 -1.47696,-58.6454 0.87213,-35.27868 0.0702,-50.43664 1.4547,-55.50361 1.05797,-3.7546 4.84326,-2.02957 4.89484,3.22277 0.0725,7.38278 0.42155,25.59593 0.27452,34.78643 -0.12327,7.70554 -0.3406,9.1014 4.23776,9.17495 l 26.04958,-0.47144 c 16.78387,-0.30369 44.1539,-1.8471 51.43248,-1.66327 6.43401,0.1625 5.52549,-0.50273 5.38516,-6.38712 -0.16677,-6.99251 -0.32465,-22.77161 -0.62171,-27.39955 -0.58217,-9.06998 0.0816,-15.81208 1.50931,-15.3322 0.47802,0.16067 2.79487,-0.40162 2.69445,5.30865 -0.17788,10.11403 1.97344,30.3922 1.75601,40.94676 l -0.0661,3.15545 h 19.44535 15.7003 c 4.40961,-0.0498 4.29768,-0.17637 4.23398,-4.38845 -0.0921,-6.09065 -0.38025,-36.47466 0.26489,-41.91433 0.68518,-5.77726 4.92378,-4.99283 4.82674,-0.32735 -0.0968,4.68842 -0.0139,22.33909 -0.005,43.68535 0.006,15.57546 0.77854,41.30756 0.75973,60.1633 -0.008,8.0989 0.34932,19.55313 0.79434,25.45377 l 0.80902,10.72848 c 2.37772,0 3.22794,0.14362 5.60566,0.14362 -0.17647,-12.11766 -0.67542,-20.19612 -0.79579,-28.83471 -0.61295,-43.99071 -1.56031,-103.82005 0.56793,-105.9017 1.38076,-1.35064 31.76802,-1.81914 50.94464,-0.93013 10.67009,0.49464 14.04182,0.42886 14.53187,1.58828 0.32238,0.76263 -0.12309,20.20171 -0.23738,40.56478 -0.11432,20.363 -0.11724,40.05289 -0.007,43.75529 0.11074,3.70239 -0.0248,16.68649 -0.30106,28.85357 l -0.50208,22.12212 c 3.64731,0.22229 7.28875,0.0945 10.93351,-0.0405 2.14862,0.0183 1.59426,-0.20659 1.61555,-2.37027 l 0.0601,-6.10261 c 0.11263,-11.45411 -0.48088,-46.49125 -1.08331,-63.95014 -0.27143,-7.86748 -0.0596,-30.91823 0.4707,-51.22382 0.53038,-20.30552 0.81418,-37.07303 0.63084,-37.26103 -0.1833,-0.1882 -0.84073,0.81383 -1.46078,2.22647 -1.50583,3.43065 -5.36166,6.49001 -9.61256,7.6271 -6.66765,1.78359 -12.71137,-2.30465 -14.26577,-9.64993 -0.51652,-2.44097 -0.53008,-2.43119 -2.65671,1.92644 -1.62899,3.33788 -2.8446,4.67231 -5.10922,5.60892 -6.64117,2.74641 -13.53096,0.55964 -16.0936,-5.10795 l -1.34853,-2.98263 -1.48417,3.60798 c -1.70647,4.14857 -5.89905,7.3945 -9.55082,7.3945 -4.82726,0 -8.18854,-3.11491 -9.83749,-9.11635 -0.18316,-0.66676 -1.18526,0.17817 -2.4677,2.08099 -3.22794,4.7892 -7.95771,7.17943 -13.43199,6.78809 -5.70422,-0.40775 -8.46805,-2.50609 -10.55861,-8.0163 l -1.63941,-4.32085 -1.99776,4.5488 c -3.06358,6.97545 -8.49239,9.56758 -13.45756,6.42558 -1.79649,-1.13676 -2.95526,-2.79482 -3.6049,-5.15829 l -0.95747,-3.48306 -2.02883,3.80699 c -2.30638,4.3276 -4.63429,6.20963 -8.59635,6.94945 -3.83471,0.71615 -9.99798,-2.41333 -12.10949,-6.14862 l -1.62283,-2.87062 -1.57405,3.33183 c -1.82692,3.86704 -7.04652,7.70671 -10.47642,7.70671 -5.08271,0 -10.45169,-3.90795 -13.21792,-9.62098 -1.12712,-2.32797 -1.22984,-2.36766 -1.80157,-0.69653 -1.02371,2.99236 -7.12356,7.79316 -9.90199,7.79316 -3.71868,0 -6.5615,-1.63503 -8.4877,-4.88159 l -1.72643,-2.90974 -1.60599,2.98647 c -4.74074,8.81578 -16.24289,9.46599 -20.3527,1.15049 l -1.52204,-3.07952 -1.89729,2.71582 c -5.97186,8.54806 -16.83724,8.73814 -21.13702,0.36975 -0.87133,-1.69578 -1.78243,-3.07135 -2.02461,-3.05686 -0.24219,0.0143 -1.05798,0.86655 -1.81283,1.89326 -1.18563,1.61263 -1.27588,2.94605 -0.6628,9.79093 0.69482,7.75801 0.76219,7.94109 3.21394,8.73778 4.19585,1.36345 4.5766,2.07721 4.42301,8.29026 -0.11789,4.76873 0.11847,5.91119 1.31536,6.35681 2.45222,0.91317 2.65928,1.99095 2.41146,12.55375 -0.18578,7.9197 -0.51937,10.43238 -1.48979,11.22154 -0.68776,0.55934 -1.59256,0.80225 -2.01074,0.53983 -0.41811,-0.2624 -1.05616,1.40367 -1.41794,3.70234 -0.56653,3.59963 -1.09696,4.47308 -3.82304,6.2949 -1.74092,1.16341 -2.71443,2.20788 -3.52101,2.20788 -1.13444,0 -1.39026,0.52406 -1.12973,2.31394 0.31246,2.14663 0.49973,28.01716 -0.10768,67.22088 l 0.1243,16.19544 27.44193,-0.62862 c 15.09304,-0.34576 49.22888,-0.487 75.85746,-0.31403 z m -75.35143,-99.10854 0.0936,-15.9323 0.43576,-11.31496 c 0.40982,-4.57569 -0.88804,-7.42983 2.54215,-7.50651 2.92751,-0.0654 5.02666,-0.07 8.52961,-0.36552 6.07152,-0.51214 6.38341,-0.63948 6.67775,-2.72749 0.23486,-1.66614 0.91615,-2.31842 2.84643,-2.7258 3.41152,-0.71992 22.21162,-0.71336 24.78184,0.007 2.8842,0.66338 2.04225,0.7533 1.93749,3.65298 l -0.31339,8.67454 c -0.23309,6.46354 -0.21384,15.53849 0.0438,20.16644 0.42294,7.59985 0.52417,6.7037 1.04605,-9.25596 0.58123,-17.77947 1.05081,-21.83332 2.42863,-20.96862 0.41132,0.25826 0.49382,0.86474 0.18324,1.34801 -0.38296,0.59575 1.03172,0.69652 4.39617,0.31308 8.43393,-0.96127 8.37287,-1.10747 7.67926,18.40331 -0.51452,14.47345 -0.42629,16.47103 0.73389,16.47103 1.16326,0 1.3318,-1.93643 1.42441,-16.36634 0.10023,-15.63156 0.68256,-18.84954 2.11994,-11.71474 0.95974,4.76453 2.0795,29.72764 1.36477,30.42847 -0.78692,0.77163 -18.34887,1.97676 -26.85986,1.84309 -6.52202,-0.10232 -29.72232,1.33386 -34.82497,2.15592 -3.59512,0.0502 -7.42871,-0.53245 -7.26661,-4.58563 z m 9.1083,0.25442 c 1.00714,-0.38276 1.37331,-1.70829 1.46188,-5.29139 0.0736,-2.97772 0.72933,-5.92401 1.73853,-7.81205 1.56562,-2.92898 1.57042,-3.09804 0.14311,-5.01618 -1.99751,-2.68351 -1.81701,-5.34725 0.50537,-7.46222 3.93894,-3.58702 10.33635,0.77662 10.02757,6.83958 -0.0968,1.90123 -0.64497,3.74211 -1.21796,4.0909 -0.7988,0.48624 -0.74078,1.24558 0.24905,3.25571 0.70993,1.44184 1.48301,4.33197 1.71784,6.42256 0.37655,3.35214 0.67495,3.80097 2.5263,3.80097 1.96412,0 2.06851,-0.20322 1.61962,-3.15541 -0.26386,-1.7355 -0.57639,-8.74055 -0.69446,-15.56683 l -0.15993,-9.24207 c -0.0207,-4.03368 0.50882,-3.16926 -3.3939,-3.16926 h -8.85402 -8.3966 c -4.82456,-0.51457 -3.70041,1.02621 -3.30375,5.25905 0.3735,3.98637 0.77988,21.22716 0.63464,26.92635 1.24679,0.9753 4.14844,0.56173 5.39671,0.12029 z m 9.71612,-0.86743 c 2.63333,-0.52406 2.68555,-0.61866 2.20809,-3.99684 -0.26895,-1.90312 -1.01762,-4.54498 -1.66369,-5.87082 -0.84459,-1.73317 -0.91173,-2.66728 -0.23904,-3.32374 0.51457,-0.50216 0.97437,-2.48049 1.02173,-4.39623 0.0716,-2.89439 -0.26383,-3.64438 -1.98402,-4.43703 -4.33414,-1.99733 -6.13424,1.11382 -3.01403,5.20924 2.47092,3.0404 1.68523,2.25228 -0.14459,5.84858 -1.06276,2.08879 -1.88332,5.2879 -1.93954,7.562 -0.10638,4.30308 0.23292,4.50389 5.75509,3.40484 z m 12.49639,-14.74323 c -0.14762,-11.51708 0.0412,-15.1312 0.76703,-14.67574 0.52954,0.3324 0.92319,2.19131 0.87455,4.13085 -0.16584,6.7087 1.33467,25.82486 2.03032,25.82486 0.90251,0 0.91009,-0.65834 0.17263,-15.14608 -0.80163,-15.749 -0.82304,-15.85268 -3.4127,-16.50668 -1.41466,-0.35726 -1.80053,-0.76198 -1.12096,-1.17565 0.56998,-0.34691 2.02643,-0.36577 3.23641,-0.0422 2.56663,0.68705 2.81149,2.22117 3.39975,21.30035 l 0.35667,11.56991 h 4.17187 c 3.66862,0 4.09521,-0.17769 3.53564,-1.4725 -0.34985,-0.80988 -0.5691,-9.04557 -0.48718,-18.30152 l 0.12166,-13.74064 c 0.0888,-3.84761 0.55441,-2.99035 -3.10546,-3.67097 -1.72303,-0.32041 -7.20279,-0.6044 -12.17713,-0.63108 -7.34859,-0.0398 -9.05003,0.17961 -9.07446,1.16763 -0.0211,0.85378 1.15869,1.29248 3.96051,1.47251 5.08846,0.30975 3.95052,-0.60007 4.18277,4.37933 l 0.41604,8.91962 c 0.61524,13.18869 1.41711,21.87762 2.01904,21.87762 0.18103,0 0.24058,-6.87593 0.13306,-15.28 z m 27.91757,13.87973 c 0.20934,-0.18008 0.70658,-7.45756 1.10461,-16.17247 l 0.72379,-15.84532 -2.68997,-0.54059 c -6.16586,-1.2394 -6.67648,-0.96367 -6.79094,3.66647 l -0.10401,4.20727 h 3.36579 c 2.43088,0 3.35716,0.35062 3.33463,1.26219 -0.0225,0.91152 -0.96615,1.26215 -3.39703,1.26215 -1.85119,0 -3.37587,0.40769 -3.38819,0.90592 -0.0123,0.49832 1.20989,0.8386 2.71599,0.75619 1.50618,-0.0825 3.30518,-0.0992 3.99787,-0.0379 2.29147,0.20393 -1.85323,2.58284 -4.49983,2.58284 h -2.43139 l 0.0231,8.20414 c 0.0316,11.29668 -0.0627,11.05694 4.14193,10.52265 1.93203,-0.24555 3.68408,-0.59372 3.89368,-0.7737 z m -6.61444,-2.80696 c 0.0114,-0.46282 1.34607,-0.84147 2.96582,-0.84147 1.61982,0 2.9358,0.37865 2.92436,0.84147 -0.0114,0.46278 -1.34614,0.84143 -2.96596,0.84143 -1.61975,0 -2.93566,-0.37865 -2.92422,-0.84143 z m 0.0832,-3.36584 c 0.0114,-0.46277 1.17909,-0.84142 2.59476,-0.84142 1.50172,0 2.34874,0.35057 2.03319,0.84142 -0.29745,0.46285 -1.46517,0.8415 -2.59482,0.8415 -1.12971,0 -2.04458,-0.37865 -2.03313,-0.8415 z m 0.18721,-7.57304 c 0.0114,-0.46278 0.80044,-0.84143 1.75332,-0.84143 0.95294,0 1.48915,0.37865 1.1917,0.84143 -0.29745,0.46286 -1.08644,0.84151 -1.75332,0.84151 -0.66693,0 -1.20314,-0.37865 -1.1917,-0.84151 z m -0.48787,-14.30468 c 0.0114,-0.46286 1.34609,-0.84151 2.96597,-0.84151 1.61974,0 2.93567,0.37865 2.92423,0.84151 -0.0114,0.46275 -1.34602,0.8414 -2.96583,0.8414 -1.61988,0 -2.93581,-0.37865 -2.92437,-0.8414 z m 61.74579,28.40645 c -2.53397,-3.14705 -7.8452,-20.35629 -7.59702,-25.4428 0.28093,-5.75858 7.5562,-9.16598 11.8018,-5.13901 3.71492,3.5236 3.7449,8.57394 0.13677,23.04826 -1.88759,7.57224 -2.89826,9.32589 -4.34155,7.53355 z m 1.77968,-14.31223 0.78675,-3.99685 h -3.6091 -3.60921 l 1.97475,5.25903 c 3.03518,8.0832 3.01429,8.05046 3.35862,5.25903 0.17123,-1.38838 0.66546,-4.32293 1.09819,-6.52121 z m 2.44476,-9.67663 c -1.48991,-6.62615 -7.36722,-7.15715 -8.56103,-0.7734 l -0.57727,3.08734 h 4.82934 4.82919 z m -21.50585,23.63064 c -0.3009,-0.30848 -0.49888,-2.51209 -0.43992,-4.89686 0.10096,-4.08388 -0.0499,-4.40578 -2.59773,-5.53947 -2.52248,-1.12251 -2.7422,-1.57274 -3.25735,-6.6731 -0.76435,-7.56767 0.86295,-16.77751 3.30821,-18.72226 2.0565,-1.63539 5.98767,-1.92639 8.39423,-0.62111 2.30879,1.25221 3.18818,6.03269 2.94654,16.01963 -0.22299,9.30315 -0.81203,10.89809 -4.00912,10.89525 -1.57917,0 -1.7114,0.42531 -1.56464,5.0487 0.12493,3.93894 -0.10335,5.0502 -1.03638,5.0502 -0.65816,0 -1.44292,-0.25243 -1.74384,-0.56098 z m 5.59139,-21.94778 c -0.43584,-10.77732 -0.72788,-11.74326 -3.68223,-12.17832 -1.33089,-0.19606 -2.81691,0.031 -3.3022,0.50461 -0.49756,0.48556 -0.9849,5.00767 -1.11745,10.3695 l -0.23506,9.50832 h 4.33437 4.33428 z m 96.5609,121.77328 c 0.0232,-0.94005 -0.42734,-1.85912 -1.00133,-2.0423 -0.89407,-0.28528 -52.98309,-2.05079 -53.28285,-1.80599 -0.0592,0.0486 -0.39092,0.94013 -0.73674,1.98141 l -0.62878,1.89326 14.98983,0.10567 c 12.96789,0.0916 38.12418,0.99074 39.99018,1.42955 0.34509,0.0815 0.64645,-0.62156 0.66969,-1.56169 z m -0.88912,-15.75076 c -0.19727,-5.43783 -0.46592,-10.01044 -0.59697,-10.16133 -0.13103,-0.15098 -1.927,1.54793 -3.99086,3.77517 -2.06395,2.22723 -5.85488,6.23469 -8.42429,8.90539 -2.56942,2.67074 -4.49466,5.03732 -4.27839,5.25902 0.32707,0.33541 10.43226,1.58908 16.09634,1.99695 1.46014,0.10519 1.53135,-0.47819 1.19417,-9.7752 z m -34.99313,3.61258 c 10.89762,-12.78772 25.77651,-29.12899 30.00987,-32.95942 l 4.76753,-4.31379 0.46045,-30.60631 c 0.25323,-16.83354 0.51687,-33.8249 0.58592,-37.75866 0.19517,-11.12695 1.04655,-10.09763 -8.35032,-10.0958 h -8.20411 l -6.51117,8.10334 c -12.03596,14.97909 -21.78607,27.60409 -27.09825,35.08851 l -5.27606,7.43357 0.40236,8.00634 c 0.22127,4.4036 0.70149,7.68488 1.06704,7.29182 1.1195,-1.20348 21.05918,-27.12547 27.73458,-36.05533 8.70539,-11.64571 18.81921,-24.12746 21.84374,-26.9582 4.88556,-4.57235 3.31104,-1.41671 -3.79294,7.60152 -8.89674,11.29403 -15.71422,20.07208 -21.69429,27.93288 -2.53224,3.32846 -9.25888,11.98913 -14.94823,19.24573 l -10.34424,13.19399 0.0929,18.61934 c 0.051,10.24071 0.26865,21.36467 0.48347,24.7199 l 0.39058,6.10053 7.24076,-0.007 7.24081,-0.007 3.89964,-4.57602 z m 23.72625,-52.48278 c -1.78885,-2.0323 -1.63552,-5.43208 0.32335,-7.16605 4.87595,-4.31607 10.53319,2.46217 5.86074,7.02191 -2.14804,2.09621 -4.41911,2.14902 -6.18405,0.14406 z m -0.60187,47.95952 c 4.02041,-4.93704 8.32225,-9.8943 9.55967,-11.01622 2.1242,-1.92597 3.14222,-5.11243 1.63321,-5.11243 -0.38091,0 -2.35506,1.98789 -4.38689,4.41759 -5.96113,7.12843 -18.41335,20.09707 -18.85849,19.64078 -0.22518,-0.23112 2.66138,-4.09316 6.41474,-8.58246 3.75348,-4.48922 8.42483,-10.09181 10.38095,-12.45011 1.95602,-2.35845 4.38813,-5.00925 5.4047,-5.89094 1.48204,-1.28542 1.86697,-2.5356 1.94351,-6.31089 l 0.0949,-4.7079 -3.2198,3.45634 c -7.51549,8.06756 -26.08591,27.98736 -29.52772,31.67347 l -3.73152,3.99617 8.49133,-0.0691 8.49127,-0.0689 7.30976,-8.97626 z m -155.81655,-14.08604 20.42748,-0.62099 -0.21817,-8.91491 c -0.12004,-4.90329 -0.43374,-16.40729 -0.69726,-25.56461 -0.26342,-9.15732 -0.20481,-17.77164 0.13022,-19.14294 0.60061,-2.45758 0.55708,-2.49424 -3.03215,-2.55514 -14.68132,-0.24939 -50.1251,-1.43073 -51.14277,-1.70444 -1.09422,-0.29445 -1.37204,3.41071 -2.18333,29.11336 -0.51135,16.1979 -0.30464,28.61588 -0.14593,29.08624 0.18713,0.55423 2.72293,1.87232 8.1143,1.49954 4.57614,-0.31637 17.51257,-0.85462 28.74766,-1.19611 z m -29.47341,-2.67372 c -1.22369,-2.52914 -2.7808,-11.8432 -2.67762,-16.01684 0.0836,-3.38332 1.71553,-6.75654 3.5479,-7.33361 1.18669,-0.37371 1.57501,-2.03039 2.21104,-9.43398 0.83398,-9.70799 1.35188,-10.67199 5.33909,-9.9369 4.30998,0.79462 4.6676,1.64265 4.44746,10.54773 -0.20081,8.12285 -0.17738,8.22665 1.94245,8.76221 3.18541,0.80436 4.49805,5.07784 4.3706,14.22872 -0.16554,11.89646 0.17258,11.49668 -9.72512,11.49668 -8.24775,0 -8.34804,-0.0245 -9.4558,-2.31401 z m 13.56213,-0.693 c 1.28651,-0.26428 1.9186,-0.99895 1.95129,-2.26812 0.0447,-1.80863 -0.19795,-1.86718 -6.69191,-1.60277 -6.84908,0.27894 -7.44433,0.64151 -5.92848,3.61107 0.73011,1.43018 1.42361,1.59755 4.80966,1.16083 2.17612,-0.28056 4.81285,-0.68613 5.85944,-0.90101 z m -1.25309,-6.80772 c 3.68263,-0.44598 3.83638,-0.57144 3.55234,-2.8987 -0.28522,-2.33671 -0.4838,-2.43693 -5.03703,-2.54112 -2.60706,-0.0599 -5.80497,-0.17222 -7.10634,-0.25024 -2.95662,-0.17722 -3.42442,0.53889 -2.8113,4.30294 0.4863,2.98511 0.49749,2.99192 4.02039,2.42338 1.94297,-0.31366 5.26485,-0.77996 7.38194,-1.03626 z m 2.12357,-8.34105 c 1.87446,-0.7125 0.30437,-4.92121 -2.28005,-6.11221 -1.87686,-0.8649 -2.02706,-1.40005 -1.89481,-6.74941 0.12613,-5.10238 -0.0599,-5.8636 -1.52843,-6.25007 -1.56136,-0.4111 -1.68226,-0.026 -1.82679,5.82024 l -0.15477,6.26058 -2.988,1.73757 c -2.09586,1.21886 -3.00295,2.34094 -3.03799,3.75819 -0.0482,1.95138 0.16328,2.02048 6.19207,2.02048 3.43317,0 6.81657,-0.21825 7.51877,-0.48537 z m -3.92237,-23.07517 c -1.62749,-1.06881 -4.18085,-1.06881 -4.20727,0 -0.0114,0.46278 1.20996,0.83561 2.71421,0.82855 2.07544,-0.01 2.43548,-0.20966 1.49306,-0.82855 z m 14.36157,38.53828 c -0.6164,-0.63196 -0.91643,-3.77363 -0.8021,-8.39835 0.17749,-7.17963 0.24244,-7.40375 2.29937,-7.91681 1.21687,-0.30353 2.71413,-0.0629 2.57275,-0.99181 -0.15846,-1.04115 -0.35213,-3.74109 -0.28568,-6.42892 0.10489,-4.24274 -1.25865,-6.7115 1.20606,-7.90349 0.73015,-0.35312 0.97507,-2.65719 0.89792,-4.75636 -0.13232,-3.60074 -0.0288,-3.77466 2.67659,-4.49409 1.54782,-0.41174 3.31215,-0.5673 3.9206,-0.34591 1.25228,0.45572 2.5793,3.67873 2.519,6.11801 -0.0221,0.89543 0.66214,2.34834 1.52075,3.22863 1.18174,1.21167 1.66269,3.4092 1.98001,9.04556 0.23045,4.09474 0.68302,7.8237 1.00556,8.28653 0.32254,0.46277 0.99386,3.59854 1.49173,6.96833 1.25626,8.50251 1.13789,8.59845 -10.61238,8.59845 -6.19341,0 -9.74168,-0.34484 -10.39018,-1.00977 z m 11.85957,-1.50306 c 4.48284,-0.01 5.68664,-0.27761 5.71127,-1.27369 0.0172,-0.69422 -0.4414,-1.29129 -1.01903,-1.32695 -5.25343,-0.32397 -6.72566,-0.27424 -7.05507,0.23828 -0.64004,0.99585 -2.83121,-0.26941 -2.79793,-1.61564 0.0203,-0.81991 0.50628,-1.07816 1.38705,-0.73686 0.74574,0.28885 1.88652,0.0937 2.53505,-0.43375 0.80082,-0.65121 1.51014,-0.68698 2.21013,-0.11139 0.63335,0.52076 1.78869,0.56317 2.99639,0.11019 3.73097,-1.39973 0.94066,-2.4346 -6.56471,-2.4346 H 649.438 l -0.0453,2.31401 c -0.0891,4.47472 0.75536,6.2768 2.69669,5.75911 0.98409,-0.26242 4.3452,-0.48222 7.46925,-0.48854 z m 3.848,-10.99785 c 3.36309,-0.30231 -3.28314,-1.43547 -9.0076,-1.53582 -4.22014,-0.0741 -5.68443,0.18843 -5.70504,1.02235 -0.0453,1.83117 0.4458,1.92262 6.87591,1.27986 3.38253,-0.3382 6.90911,-0.68303 7.83673,-0.76639 z m -0.99558,-10.78428 c 0.37896,-5.32553 0.83923,-5.71417 -4.26386,-6.21866 -5.12999,-0.66622 -4.35302,-0.0609 -4.06964,3.13341 l 0.77705,8.86833 h 3.70674 3.70675 z m -3.22389,-12.09078 c -0.2238,-3.11057 -3.09577,-4.56963 -3.16894,-1.60997 -0.0642,2.59807 0.79394,4.33776 2.13967,4.33776 0.87526,0 1.16942,-0.7797 1.02927,-2.72779 z m 89.76354,26.07801 c 0.0388,-7.52047 -0.18762,-18.09319 -0.50267,-23.49505 -0.31502,-5.40171 -0.50741,-12.46748 -0.42746,-15.70154 l 0.14537,-5.88023 -6.92789,-0.56834 c -3.81034,-0.31259 -12.99075,-0.3895 -20.40088,-0.17078 -7.41021,0.21872 -20.53929,0.42144 -29.17567,0.45061 -8.63652,0.0295 -15.88813,0.35592 -16.11471,0.72632 -0.22668,0.37031 -0.0142,4.83847 0.47211,9.92924 0.48628,5.0908 1.13459,15.69305 1.44054,23.56054 0.30604,7.86756 0.73566,16.2515 0.95477,18.63093 l 0.39836,4.32622 5.5647,0.40226 c 3.06059,0.22111 13.11806,0.46498 22.34996,0.54186 9.23192,0.0766 16.9568,0.31553 17.16652,0.53056 0.20959,0.21491 5.9175,0.39094 12.68404,0.39094 h 12.30286 z m -34.63309,10.79459 c -1.41234,-0.62156 -3.40054,-2.21605 -4.41844,-3.54322 -1.56945,-2.04644 -1.76479,-3.0931 -1.28567,-6.88882 0.59541,-4.7168 1.7281,-6.68498 4.41366,-7.66947 1.42797,-0.52341 1.24941,-0.82507 -1.44082,-2.43587 -2.31782,-1.38782 -2.99348,-2.30132 -2.75585,-3.72613 0.39615,-2.37495 3.46745,-2.93409 6.18275,-1.12565 1.83769,1.22392 2.00919,1.19911 2.54542,-0.36806 0.86862,-2.53925 1.96086,-1.2233 2.48971,2.9998 0.37461,2.99122 0.87051,3.87563 2.38794,4.25884 5.72248,1.4453 7.44675,9.19581 3.33444,14.9883 -3.2683,4.60383 -6.62866,5.63371 -11.45314,3.51028 z m 7.64843,-4.75518 c 1.73423,-1.33807 2.27866,-2.48899 2.33939,-4.94563 0.0938,-3.79389 -0.82063,-4.72563 -5.72537,-5.83382 -4.6581,-1.0524 -6.39084,-0.16291 -7.21145,3.70221 -0.83758,3.94442 -0.27708,5.59307 2.49398,7.3379 3.04833,1.91926 5.37529,1.84445 8.10345,-0.26066 z m -7.02418,-17.60932 c -0.81481,-0.9256 -2.08556,-1.67451 -2.82399,-1.66423 -0.9774,0.0143 -0.78137,0.46631 0.72034,1.66423 2.69276,2.14778 3.99432,2.14778 2.10365,0 z m -25.00463,21.48882 c -8.03861,-3.42984 -8.75906,-14.29486 -1.18455,-17.8648 l 2.88794,-1.36113 -2.01623,-1.61741 c -2.64129,-2.11888 -3.99898,-4.80018 -2.94927,-5.82456 0.72951,-0.71191 3.7251,0.0384 8.7012,2.18149 0.97343,0.41911 1.55805,0.0799 1.97825,-1.14883 1.08763,-3.17918 2.30176,-1.84334 1.95724,2.15327 -0.3349,3.88415 -0.32653,3.89764 2.53549,4.12326 5.8398,0.46025 7.14799,6.13435 3.19504,13.85739 -2.41035,4.70936 -10.26062,7.56843 -15.10511,5.50132 z m 10.84043,-5.24856 c 2.45773,-2.39844 3.17978,-7.45957 1.35923,-9.52771 -1.77622,-2.01776 -3.38831,-2.11282 -5.23732,-0.30841 -1.27721,1.24639 -1.46609,1.24639 -2.34664,0 -1.30084,-1.84114 -2.80932,-1.70318 -5.18067,0.47409 -2.88947,2.65294 -2.54261,6.00483 1.06051,10.24706 1.70217,2.00408 7.93041,1.47132 10.34489,-0.88503 z m -6.79059,-17.52918 c -0.8816,-0.67949 -2.17086,-1.23542 -2.86506,-1.23542 -0.95338,0 -0.87005,0.30223 0.34073,1.23542 0.88149,0.67942 2.17074,1.23542 2.86493,1.23542 0.95339,0 0.87006,-0.3023 -0.3406,-1.23542 z m 35.31176,22.9983 c -2.14102,-2.1953 -0.95483,-2.91069 4.71464,-2.84362 5.23517,0.0614 5.72935,-0.0885 6.69425,-2.03683 2.67177,-5.39464 -1.56461,-11.3569 -7.61853,-10.72227 -2.16374,0.22684 -2.6544,0.0119 -2.31703,-1.01625 0.28008,-0.85304 -0.49693,-1.74029 -2.24735,-2.56607 -3.27495,-1.54507 -4.17541,-5.04868 -1.29761,-5.04868 1.00198,0 2.90226,0.78304 4.22269,1.74016 2.37273,1.71977 2.40143,1.72059 2.44225,0.0691 0.0601,-2.43139 1.0103,-4.39554 1.86647,-3.85815 0.40795,0.25602 0.70528,1.94001 0.66073,3.74227 -0.0758,3.06507 0.15633,3.38295 3.59295,4.91983 4.27254,1.91093 5.44818,3.76769 5.3331,8.42298 -0.11782,4.76565 -1.40534,7.40175 -4.34947,8.90501 -3.02436,1.54421 -10.29897,1.72627 -11.69709,0.29269 z m -30.88716,-31.75092 c -2.01907,-2.29366 -5.01226,-2.78611 -8.40535,-1.38289 -1.63035,0.67413 -3.15723,0.90024 -3.39338,0.50234 -0.41112,-0.69304 2.85124,-3.65821 4.98217,-4.52836 1.08582,-0.44334 -3.67975,-5.5858 -5.17649,-5.5858 -1.85254,0 -0.71691,2.65701 1.80235,4.21655 2.64763,1.63892 2.65679,1.66738 0.53809,1.67048 -2.61555,0 -5.76904,-2.80942 -5.7125,-5.09641 0.055,-2.22609 3.51106,-3.79694 5.71904,-2.59944 1.15325,0.6254 1.91068,0.62302 2.55772,-0.007 1.4895,-1.45357 2.49755,-0.14168 3.00504,3.9106 0.35713,2.85175 0.84501,3.79687 1.96021,3.79687 1.61854,0 5.06175,3.31906 5.02408,4.84283 -0.043,1.73762 -1.4872,1.86787 -2.90101,0.2617 z m 38.76586,-2.28755 c -5.16722,-3.67046 -9.42452,-3.70171 -11.24038,-0.0825 -0.63846,1.27273 -1.51886,2.31402 -1.9564,2.31402 -1.02104,0 -0.91809,-4.71251 0.14431,-6.61025 0.6473,-1.15597 0.31757,-1.67239 -1.62194,-2.54043 -2.9429,-1.31702 -3.99652,-4.70073 -2.05405,-6.59645 1.7082,-1.66702 4.65992,-0.95186 7.6064,1.84296 1.23154,1.16808 2.40905,2.12386 2.61657,2.12386 0.2075,0 0.41369,-1.46822 0.45805,-3.26277 0.0756,-3.05774 1.76807,-5.77015 2.88554,-4.62435 0.27498,0.28196 0.22553,2.83653 -0.11003,5.67675 l -0.60988,5.16404 2.97899,1.08692 c 3.47039,1.26628 7.30159,5.54814 6.56897,7.34182 -0.66622,1.63098 -0.89142,1.55802 -5.66638,-1.83382 z m -10.34567,-9.12784 c -1.97433,-2.15833 -4.13826,-2.79117 -4.17706,-1.22154 -0.012,0.48507 1.19559,1.41691 2.68349,2.07061 3.64638,1.60214 3.70522,1.56862 1.49357,-0.84907 z m -21.05355,9.88698 c 0.25307,-0.80988 0.74102,-2.11578 1.08485,-2.90199 0.48634,-1.11235 0.0225,-1.58681 -2.09637,-2.13913 -3.08368,-0.80427 -4.59171,-2.70079 -3.76226,-4.73151 0.62292,-1.52515 5.23481,-1.93214 6.06365,-0.5351 0.91967,1.55015 2.08235,0.86276 2.13488,-1.26218 0.0315,-1.27346 0.53185,-2.10358 1.26802,-2.10358 0.85122,0 1.26377,1.18442 1.37493,3.94756 0.15055,3.74058 0.31238,3.98518 3.08622,4.66625 3.41515,0.83841 7.17353,4.62952 5.8601,5.91127 -0.56947,0.55573 -1.60941,0.23494 -3.09103,-0.95363 -2.97403,-2.38576 -8.29913,-2.44453 -9.81581,-0.10829 -1.34672,2.07432 -2.73242,2.21266 -2.10718,0.21038 z m 0.79416,-7.27265 c 0.004,-0.18175 -0.55441,-0.54859 -1.24202,-0.81498 -0.68763,-0.26645 -1.25927,-0.11759 -1.27035,0.33069 -0.0111,0.44821 0.54781,0.81498 1.24203,0.81498 0.69419,0 1.26584,-0.14884 1.27034,-0.33069 z m 74.91784,-29.11995 c 4.12546,-5.32222 10.25856,-13.0657 13.62925,-17.2079 3.37079,-4.14213 6.04827,-7.59727 5.95011,-7.67806 -0.0982,-0.0808 -2.28694,-0.40307 -4.864,-0.71616 l -4.68563,-0.56923 -12.73536,16.00769 -12.73541,16.00782 -0.19149,7.74589 -0.19149,7.74577 4.16159,-5.82954 c 2.28889,-3.20637 7.53702,-10.18415 11.66243,-15.50628 z m -218.8546,9.96232 c -1.05547,-13.43135 -1.27707,-26.06842 -0.57173,-32.60609 0.42441,-3.93383 0.67903,-7.28161 0.56586,-7.43951 -0.665,-0.92787 -5.7781,-2.42893 -6.1324,2.83448 -0.43249,6.4249 0.44053,17.71735 0.25187,25.56586 -0.29743,12.43588 0.16995,16.90436 4.67964,16.90436 1.48431,0 1.58544,-0.44089 1.20676,-5.2591 z m 33.6328,3.00984 c 1.62604,-2.15105 2.38641,-9.30808 2.81027,-26.45363 l 0.30122,-12.18465 c 0.0876,-3.2252 0.6847,-2.60874 -2.33127,-3.21491 -1.31936,-0.2652 -8.66982,-0.74734 -16.33443,-1.07128 l -14.95432,-0.51384 -0.65575,2.3785 c -0.70877,2.57081 -0.64749,33.79438 0.0781,39.85209 l 0.44267,3.69552 15.25779,-0.52329 c 12.42941,-0.42628 14.38478,-0.64043 15.38572,-1.96451 z m -20.74277,-1.55317 c -3.7603,-1.3538 -5.60259,-2.80064 -5.5638,-4.36971 0.0367,-1.48305 0.90527,-1.46708 3.04209,0.0563 2.834,2.01991 9.54568,2.51236 13.26706,0.97333 4.04062,-1.67105 4.74324,-1.68193 4.70345,-0.0723 -0.0491,1.98709 -5.18534,4.61335 -8.94834,4.57556 -1.85076,-0.0191 -4.77598,-0.54179 -6.50047,-1.16266 z m -5.17663,-8.03816 c -3.1227,-1.20547 -3.00039,-2.49036 0.53934,-6.99488 4.19022,-5.33237 5.41325,-7.5223 5.4694,-9.7939 0.055,-2.22319 -2.13048,-2.25908 -3.36446,-0.0555 -1.27413,2.27563 -4.08397,1.89931 -4.02425,-0.51635 0.16435,-5.84693 8.2477,-7.18523 10.65902,-3.61661 1.95501,2.8932 2.3875,6.24202 -1.73416,11.05858 -3.65839,4.27518 -4.14491,4.76428 -0.25982,5.60478 1.84384,0.29606 3.01174,-0.89932 3.40241,1.47828 0.5959,3.62662 -8.43544,3.70497 -10.68748,2.8356 z m 17.47832,-4.22234 c 0.0957,-3.86893 -0.29402,-3.46624 -2.13383,-3.46624 -3.05729,0 -3.2615,-2.42277 -2.95757,-7.13903 0.33511,-5.20013 0.42537,-7.2284 3.1513,-7.06514 0.62247,0.0373 1.90693,1.33456 1.50964,4.43964 -0.52803,4.12718 -0.64535,4.82887 0.75522,4.82887 1.21851,0 0.77129,-0.8695 1.28949,-3.83548 1.39053,-7.96054 5.6921,-5.15917 4.69833,7.00033 -0.90159,8.20809 -0.53046,9.5699 -4.74964,9.44432 -1.43863,-0.0428 -1.65274,-0.57447 -1.56294,-4.20727 z m 0.11031,-21.4789 c -4.02831,-2.51942 -8.13335,-2.65359 -12.58665,-0.41147 -3.60097,1.813 -4.71085,1.59029 -3.28169,-0.65872 1.32034,-2.07773 6.31095,-4.37438 9.50876,-4.37588 4.90306,0 11.86968,3.79832 11.80438,6.43992 -0.0409,1.6528 -1.69643,1.35053 -5.4448,-0.99385 z m 183.19562,18.40673 c 2.2719,-3.07814 6.97503,-9.23123 10.45157,-13.67357 l 6.32076,-8.07696 -10.31624,-0.4903 c -5.67403,-0.26972 -10.60394,-0.34197 -10.95552,-0.16076 -0.99963,0.51549 -1.46806,27.9981 -0.47725,27.9981 0.46531,0 2.70482,-2.51842 4.97671,-5.59654 z m -132.90037,-45.85942 c 2.25928,-1.7433 5.69576,-7.98981 5.75694,-10.46448 0.0245,-0.98898 -1.46952,-1.11066 -8.60752,-0.70125 -4.75035,0.27248 -9.0837,0.62962 -9.62956,0.7937 -1.59046,0.47792 0.85001,8.08301 3.30177,10.28931 2.65134,2.38576 6.15264,2.41731 9.17837,0.0827 z m -22.72886,-2.39914 c 1.71944,-1.85254 3.13481,-3.71482 3.14528,-4.13848 0.0105,-0.42357 0.26378,-1.36914 0.5627,-2.1012 0.47552,-1.16415 -0.62134,-1.33095 -8.75266,-1.33095 -5.5509,0 -9.52376,0.35392 -9.86092,0.87848 -0.31057,0.4831 0.0596,1.90303 0.8227,3.15541 4.84684,7.95486 9.01142,9.00075 14.0829,3.53674 z m 69.07683,1.672 c 3.88116,-2.36259 8.32428,-11.70165 5.62084,-11.81474 -4.21438,-0.1765 -20.52002,0.20656 -20.80922,0.48877 -1.64603,1.60637 6.3795,11.76206 9.81465,12.41965 1.07256,0.20536 2.09354,0.42492 2.26882,0.48796 0.17519,0.0632 1.57234,-0.64871 3.10491,-1.58164 z m -95.6751,-1.11842 c 2.52548,-1.82981 6.20989,-5.77652 6.23212,-6.67575 0.0204,-0.8247 -10.43447,-1.52273 -14.75216,-0.98494 l -4.53526,0.56489 1.17594,3.06196 c 2.33841,6.08899 6.90356,7.63914 11.87936,4.03384 z m 70.4257,-0.67878 c 1.87359,-1.44563 5.69283,-7.86952 5.73683,-9.64905 0.0153,-0.6203 -15.52037,0.67337 -16.28891,1.35637 -1.10898,0.98552 1.355,6.26852 3.86122,8.27899 2.83867,2.27721 3.75496,2.27904 6.69085,0.0143 z m 50.26923,0.16792 c 2.7668,-2.1349 6.36167,-10.03648 4.83505,-10.62787 -0.58714,-0.22755 -5.02058,-0.30495 -9.8519,-0.17198 l -8.78433,0.24146 0.22818,2.10366 c 0.37927,3.4964 2.80017,7.06754 5.84609,8.62353 3.68943,1.88463 5.10579,1.85369 7.72691,-0.16864 z m 23.3624,-5.28856 c 0.97212,-2.43567 1.60239,-4.71245 1.40045,-5.05955 -0.2018,-0.3471 -3.58874,-0.63108 -7.5264,-0.63108 -7.0411,0 -7.15023,0.0315 -6.60688,1.89326 1.37263,4.70411 3.4999,8.962 4.86428,9.7362 2.6261,1.49024 5.88526,-0.96953 7.86855,-5.93883 z m 45.42526,5.68086 c 1.74361,-0.89029 2.98486,-2.59504 4.3118,-5.92169 1.02485,-2.56935 1.86768,-4.84662 1.87297,-5.06067 0.005,-0.21396 -3.80239,-0.38913 -8.46157,-0.38913 -8.39213,0 -8.46632,0.0167 -7.95055,1.89326 1.85443,6.74346 4.11523,9.94937 7.528,10.67507 0.13786,0.0296 1.35257,-0.50922 2.69935,-1.19684 z m -22.62793,-0.87741 c 2.33296,-1.19119 5.7851,-5.54473 7.15368,-9.02157 0.53385,-1.3564 -0.31411,-1.47251 -10.75355,-1.47251 -9.64325,0 -11.33794,0.19321 -11.36519,1.29567 -0.0526,2.12815 3.01412,7.75265 4.99801,9.16678 2.34866,1.67409 6.72315,1.68797 9.96705,0.0315 z m 72.37674,-0.007 c 1.39207,-0.71079 3.71771,-2.87641 5.16811,-4.81253 2.40428,-3.2094 2.50463,-3.57291 1.13704,-4.1179 -0.82497,-0.32873 -5.72373,-0.62433 -10.88608,-0.65691 l -9.38608,-0.0594 0.85714,3.03761 c 1.9479,6.90251 7.27511,9.58804 13.10988,6.60886 z m -25.21811,-1.26015 c 1.59112,-0.84043 5.15849,-6.56778 5.20262,-8.35281 0.0137,-0.55491 -3.51775,-0.87494 -9.65501,-0.87494 -5.3222,0 -9.68168,0.20155 -9.68777,0.44775 -0.0367,1.48325 2.47766,6.32035 4.07922,7.84757 2.06754,1.97157 7.1941,2.44673 10.06094,0.93243 z m -215.47229,-8.1492 8.63699,-0.49069 0.26038,-9.76025 c 0.14271,-5.36807 0.6876,-17.64372 1.21101,-27.27915 l 0.95152,-17.51895 -8.83385,0.26922 -8.8339,0.26929 -0.92762,16.82899 c -0.51016,9.25589 -1.58945,20.04745 -2.39845,23.98128 -0.80896,3.93374 -1.5168,8.9914 -1.57301,11.2392 -0.0877,3.54778 0.0938,4.01202 1.38439,3.51925 0.81758,-0.31213 5.37318,-0.78836 10.12353,-1.05819 z m 33.59319,-2.07447 c 0.94327,-0.9205 1.05575,-3.84987 0.6243,-16.26133 -0.28935,-8.32616 -0.25741,-20.20225 0.071,-26.39127 l 0.59727,-11.2527 -10.56007,0.59864 c -5.80801,0.32926 -10.57358,0.65979 -10.59019,0.73459 -0.0161,0.0749 -0.19042,12.40199 -0.38626,27.39381 l -0.35605,27.25776 9.72469,-0.47836 c 6.42276,-0.31592 10.11543,-0.8596 10.87528,-1.60114 z m 20.21655,-0.32682 2.64215,-0.39805 0.55987,-27.01779 0.55987,-27.01788 -7.50508,0.53118 c -4.12778,0.29212 -8.77218,0.53112 -10.32085,0.53112 l -2.81578,-3.1e-4 -0.24402,9.4663 c -0.13571,5.20645 0.0142,17.47182 0.32968,27.25634 l 0.57353,17.79015 6.78908,-0.37171 c 3.73401,-0.20441 7.97811,-0.55082 9.43129,-0.76968 z m 23.52207,-1.37741 c 0.18455,-0.18008 0.7883,-12.14179 1.34148,-26.5815 l 1.00591,-26.25425 h -9.58391 -9.58393 l -0.19425,7.85771 c -0.10685,4.32181 -0.15644,16.49028 -0.11024,27.04118 l 0.0841,19.1833 8.35267,-0.45961 c 4.59386,-0.25281 8.50367,-0.60699 8.68818,-0.78717 z m 22.77904,-0.34363 4.97465,-0.51945 0.38951,-21.98931 c 0.21428,-12.09415 0.40871,-23.78792 0.43204,-25.98618 l 0.0425,-3.99718 H 681.55665 669.7172 l 0.39381,11.99063 c 0.46674,14.20886 0.0903,29.45286 -0.89447,36.18228 l -0.70727,4.83834 h 7.03628 c 3.86988,0 9.27473,-0.23375 12.0108,-0.51945 z m 29.34831,-21.14791 c 0.1274,-11.4542 0.60674,-23.19241 1.06541,-26.08487 l 0.83374,-5.25903 h -11.514 -11.51397 l 0.32615,6.10045 c 0.17934,3.35531 0.34239,15.09351 0.36251,26.08496 l 0.0364,19.98434 h 10.08601 10.08602 z m 19.31229,20.11702 c 0.25059,-0.38982 1.03364,-8.43617 1.73999,-17.88074 0.7065,-9.44459 1.58862,-20.8638 1.96037,-25.37606 l 0.67595,-8.20412 h -9.611 -9.61095 l -0.50364,4.67819 c -0.27709,2.57299 -0.5625,14.3112 -0.63485,26.08487 l -0.13081,21.40669 h 7.82947 c 4.30614,0 8.03454,-0.31894 8.28506,-0.70883 z m 31.11814,-0.0272 c 17.88664,-0.10447 17.99933,-0.11663 18.62382,-1.99847 0.34542,-1.04129 1.10494,-12.59018 1.68785,-25.66419 l 1.0597,-23.77087 h -9.71306 -9.71298 l -0.44353,22.92944 c -0.44208,22.86072 -1.04654,27.55745 -3.5462,27.55745 -0.68518,0 -0.69283,-6.94959 -0.0279,-25.2437 l 0.91765,-25.24371 h -11.78023 -11.78031 l -0.14539,17.46027 c -0.08,9.60318 -0.63341,21.01972 -1.2298,25.37005 -0.59651,4.35034 -0.94976,8.13686 -0.78502,8.41447 0.16463,0.27761 2.23006,0.45746 4.58968,0.3996 2.35955,-0.058 12.38821,-0.15266 22.28581,-0.21038 z m 72.45243,-4.43591 c 0.84066,-6.50467 1.65302,-38.80865 1.07945,-42.89211 l -0.4286,-3.04681 -11.32104,-0.60074 c -6.22665,-0.33037 -11.43266,-0.47394 -11.56901,-0.319 -0.13621,0.1548 -0.73752,11.92526 -1.33602,26.15625 l -1.08816,25.87455 h 11.99795 11.99797 l 0.66839,-5.17214 z m -28.19809,-2.61156 c 0.45008,-12.99553 2.10945,-39.75062 2.60955,-42.07245 l 0.49839,-2.31394 h -11.90045 -11.90048 l 0.0464,19.14294 c 0.0255,10.52859 -0.34955,21.89654 -0.83323,25.26207 -0.48362,3.36546 -0.70289,6.30001 -0.48722,6.52121 0.21565,0.22111 5.19248,0.40212 11.05936,0.40212 h 10.66712 z" transform="translate(0.36641364,83.529802) translate(-551.26463,468.62628)"/>
</svg>